<?xml version="1.0" encoding="UTF-8" standalone="no"?>
<!-- Created with Inkscape (http://www.inkscape.org/) -->

<svg
   width="1024"
   height="1024"
   viewBox="0 0 270.93332 270.93334"
   version="1.1"
   id="svg8"
   inkscape:version="1.1.2 (0a00cf5339, 2022-02-04)"
   sodipodi:docname="logo-fuschia.svg"
   xmlns:inkscape="http://www.inkscape.org/namespaces/inkscape"
   xmlns:sodipodi="http://sodipodi.sourceforge.net/DTD/sodipodi-0.dtd"
   xmlns="http://www.w3.org/2000/svg"
   xmlns:svg="http://www.w3.org/2000/svg"
   xmlns:rdf="http://www.w3.org/1999/02/22-rdf-syntax-ns#"
   xmlns:cc="http://creativecommons.org/ns#"
   xmlns:dc="http://purl.org/dc/elements/1.1/">
  <defs
     id="defs2" />
  <sodipodi:namedview
     id="base"
     pagecolor="#ffffff"
     bordercolor="#666666"
     borderopacity="1.0"
     inkscape:pageopacity="0.0"
     inkscape:pageshadow="2"
     inkscape:zoom="1.8730469"
     inkscape:cx="512"
     inkscape:cy="512"
     inkscape:document-units="px"
     inkscape:current-layer="layer1"
     showgrid="true"
     units="px"
     borderlayer="true"
     inkscape:showpageshadow="false"
     inkscape:snap-bbox="true"
     inkscape:bbox-paths="true"
     inkscape:bbox-nodes="true"
     inkscape:snap-bbox-edge-midpoints="true"
     inkscape:snap-bbox-midpoints="true"
     inkscape:object-paths="true"
     inkscape:snap-intersection-paths="true"
     inkscape:snap-smooth-nodes="true"
     inkscape:snap-midpoints="true"
     inkscape:snap-object-midpoints="true"
     inkscape:snap-center="true"
     inkscape:snap-text-baseline="true"
     inkscape:snap-page="true"
     showguides="false"
     inkscape:guide-bbox="true"
     inkscape:snap-grids="true"
     inkscape:window-width="3840"
     inkscape:window-height="2133"
     inkscape:window-x="0"
     inkscape:window-y="0"
     inkscape:window-maximized="1"
     inkscape:pagecheckerboard="0">
    <inkscape:grid
       type="xygrid"
       id="grid3713"
       empspacing="32" />
  </sodipodi:namedview>
  <metadata
     id="metadata5">
    <rdf:RDF>
      <cc:Work
         rdf:about="">
        <dc:format>image/svg+xml</dc:format>
        <dc:type
           rdf:resource="http://purl.org/dc/dcmitype/StillImage" />
      </cc:Work>
    </rdf:RDF>
  </metadata>
  <g
     inkscape:label="Layer 1"
     inkscape:groupmode="layer"
     id="layer1"
     transform="translate(0,-161.53331)">
    <g
       id="g837"
       transform="matrix(1.9354838,0,0,1.9354838,4.3699025,-146.74191)">
      <path
         sodipodi:type="star"
         style="fill:#000000;fill-opacity:1;stroke-width:0.264583"
         id="path3822"
         sodipodi:sides="6"
         sodipodi:cx="67.73333"
         sodipodi:cy="229.26665"
         sodipodi:r1="65.616669"
         sodipodi:r2="56.825703"
         sodipodi:arg1="-1.5707963"
         sodipodi:arg2="-1.0471975"
         inkscape:flatsided="true"
         inkscape:rounded="0"
         inkscape:randomized="0"
         d="m 67.733332,163.64998 56.825698,32.80833 0,65.61667 -56.825702,32.80834 -56.825701,-32.80834 2e-6,-65.61667 z" />
      <path
         style="fill:#a02c5a;fill-opacity:1;stroke-width:0.774194"
         d="M 422.27734,160 256,256 v 192 l 166.27734,-96 z"
         id="path3834"
         transform="matrix(0.26458333,0,0,0.26458333,0,161.53331)" />
      <path
         style="fill:#d35f8d;fill-opacity:1;stroke-width:0.774194"
         d="M 256,256 89.722656,160 V 352 L 256,448 Z"
         id="path3837"
         transform="matrix(0.26458333,0,0,0.26458333,0,161.53331)" />
      <path
         style="fill:#e9afc6;fill-opacity:1;stroke-width:0.774194"
         d="M 256,64 89.722656,160 256,256 422.27734,160 Z"
         id="path3824"
         transform="matrix(0.26458333,0,0,0.26458333,0,161.53331)" />
      <path
         style="fill:#d35f8d;fill-opacity:1;stroke-width:1"
         d="m 256,124 a 71.999998,35.999999 0 0 0 -32.95117,4 H 184 v 32 a 71.999998,35.999999 0 0 0 72,36 z"
         id="path3876"
         transform="matrix(0.26458333,0,0,0.26458333,0,161.53331)" />
      <path
         style="fill:#a02c5a;fill-opacity:1;stroke-width:1"
         d="m 256,124 v 72 a 71.999998,35.999999 0 0 0 72,-36 V 128 H 288.83594 A 71.999998,35.999999 0 0 0 256,124 Z"
         id="ellipse3866"
         transform="matrix(0.26458333,0,0,0.26458333,0,161.53331)" />
      <ellipse
         style="fill:#f4d7e3;fill-opacity:1;stroke-width:0.264583"
         id="ellipse3868"
         cx="67.73333"
         cy="195.39998"
         rx="19.049999"
         ry="9.5249996" />
    </g>
  </g>
</svg>
