<?xml version="1.0" encoding="UTF-8" standalone="no"?>
<!-- Created with Inkscape (http://www.inkscape.org/) -->

<svg
   width="1024"
   height="1024"
   viewBox="0 0 270.93332 270.93334"
   version="1.1"
   id="svg8"
   inkscape:version="1.2.2 (b0a8486541, 2022-12-01)"
   sodipodi:docname="logo-wireframe.svg"
   xmlns:inkscape="http://www.inkscape.org/namespaces/inkscape"
   xmlns:sodipodi="http://sodipodi.sourceforge.net/DTD/sodipodi-0.dtd"
   xmlns="http://www.w3.org/2000/svg"
   xmlns:svg="http://www.w3.org/2000/svg"
   xmlns:rdf="http://www.w3.org/1999/02/22-rdf-syntax-ns#"
   xmlns:cc="http://creativecommons.org/ns#"
   xmlns:dc="http://purl.org/dc/elements/1.1/">
  <defs
     id="defs2" />
  <sodipodi:namedview
     id="base"
     pagecolor="#ffffff"
     bordercolor="#666666"
     borderopacity="1.0"
     inkscape:pageopacity="0.0"
     inkscape:pageshadow="2"
     inkscape:zoom="1.9023438"
     inkscape:cx="492.81313"
     inkscape:cy="512.52565"
     inkscape:document-units="px"
     inkscape:current-layer="layer1"
     showgrid="true"
     units="px"
     borderlayer="true"
     inkscape:showpageshadow="false"
     inkscape:snap-bbox="true"
     inkscape:bbox-paths="true"
     inkscape:bbox-nodes="true"
     inkscape:snap-bbox-edge-midpoints="true"
     inkscape:snap-bbox-midpoints="true"
     inkscape:object-paths="true"
     inkscape:snap-intersection-paths="true"
     inkscape:snap-smooth-nodes="true"
     inkscape:snap-midpoints="true"
     inkscape:snap-object-midpoints="true"
     inkscape:snap-center="true"
     inkscape:snap-text-baseline="true"
     inkscape:snap-page="true"
     showguides="false"
     inkscape:guide-bbox="true"
     inkscape:snap-grids="true"
     inkscape:window-width="3840"
     inkscape:window-height="2131"
     inkscape:window-x="0"
     inkscape:window-y="0"
     inkscape:window-maximized="1"
     inkscape:pagecheckerboard="0"
     inkscape:deskcolor="#d1d1d1">
    <inkscape:grid
       type="xygrid"
       id="grid3713"
       empspacing="32" />
  </sodipodi:namedview>
  <metadata
     id="metadata5">
    <rdf:RDF>
      <cc:Work
         rdf:about="">
        <dc:format>image/svg+xml</dc:format>
        <dc:type
           rdf:resource="http://purl.org/dc/dcmitype/StillImage" />
      </cc:Work>
    </rdf:RDF>
  </metadata>
  <g
     inkscape:label="Layer 1"
     inkscape:groupmode="layer"
     id="layer1"
     transform="translate(0,-161.53331)">
    <g
       id="g950">
      <path
         sodipodi:type="star"
         style="fill:#000000;fill-opacity:1;stroke-width:0.264583"
         id="path3822"
         sodipodi:sides="6"
         sodipodi:cx="67.73333"
         sodipodi:cy="229.26665"
         sodipodi:r1="65.616669"
         sodipodi:r2="56.825703"
         sodipodi:arg1="-1.5707963"
         sodipodi:arg2="-1.0471975"
         inkscape:flatsided="true"
         inkscape:rounded="0"
         inkscape:randomized="0"
         d="m 67.733332,163.64998 56.825698,32.80833 0,65.61667 -56.825702,32.80834 -56.825701,-32.80834 2e-6,-65.61667 z"
         transform="matrix(1.9354838,0,0,1.9354838,4.3699025,-146.74191)" />
      <g
         id="g940">
        <path
           style="fill:none;fill-opacity:1;stroke:#cccccc;stroke-width:2.11667;stroke-linecap:round;stroke-linejoin:round;stroke-dasharray:none"
           d="m 135.46667,198.67738 -85.150087,49.16129 85.150087,49.16129 85.15009,-49.16129 z"
           id="path3824" />
        <path
           id="path3876"
           style="fill:none;fill-opacity:1;stroke:#cccccc;stroke-width:2.11667;stroke-linecap:round;stroke-linejoin:round;stroke-dasharray:none"
           d="m 98.595531,231.45152 v 16.38712 a 36.870965,18.435482 0 0 0 36.871129,18.43556 v -16.38711 a 36.870964,18.435482 0 0 1 -1.99626,-0.0269 36.870964,18.435482 0 0 1 -1.99005,-0.0811 36.870964,18.435482 0 0 1 -1.9787,-0.13488 36.870964,18.435482 0 0 1 -1.96112,-0.1881 36.870964,18.435482 0 0 1 -1.93786,-0.24081 36.870964,18.435482 0 0 1 -1.90893,-0.29353 36.870964,18.435482 0 0 1 -1.8743,-0.34416 36.870964,18.435482 0 0 1 -1.83452,-0.39429 36.870964,18.435482 0 0 1 -1.78904,-0.4439 36.870964,18.435482 0 0 1 -1.73839,-0.49145 36.870964,18.435482 0 0 1 -1.68258,-0.53743 36.870964,18.435482 0 0 1 -1.62161,-0.58239 36.870964,18.435482 0 0 1 -1.5565,-0.62581 36.870964,18.435482 0 0 1 -1.48621,-0.66662 36.870964,18.435482 0 0 1 -1.41232,-0.7059 36.870964,18.435482 0 0 1 -1.33325,-0.74311 36.870964,18.435482 0 0 1 -1.25108,-0.77825 36.870964,18.435482 0 0 1 -1.16479,-0.81132 36.870964,18.435482 0 0 1 -1.07539,-0.84129 36.870964,18.435482 0 0 1 -0.98288,-0.86868 36.870964,18.435482 0 0 1 -0.88729,-0.89452 36.870964,18.435482 0 0 1 -0.7891,-0.91726 36.870964,18.435482 0 0 1 -0.68884,-0.93741 36.870964,18.435482 0 0 1 -0.586015,-0.95446 36.870964,18.435482 0 0 1 -0.482141,-0.96893 36.870964,18.435482 0 0 1 -0.376205,-0.9803 36.870964,18.435482 0 0 1 -0.269234,-0.98961 36.870964,18.435482 0 0 1 -0.162264,-0.99477 36.870964,18.435482 0 0 1 -0.05426,-0.99839 z" />
        <path
           style="fill:none;fill-opacity:1;stroke:#cccccc;stroke-width:2.11667;stroke-linecap:round;stroke-linejoin:round;stroke-dasharray:none"
           d="m 220.61676,247.83867 -85.15009,49.16129 v 98.32257 l 85.15009,-49.16128 z"
           id="path3834" />
        <path
           style="fill:none;fill-opacity:1;stroke:#cccccc;stroke-width:2.11667;stroke-linecap:round;stroke-linejoin:round;stroke-dasharray:none"
           d="M 135.46667,296.99996 50.316583,247.83867 v 98.32258 l 85.150087,49.16128 z"
           id="path3837" />
        <path
           id="ellipse3866"
           style="fill:none;fill-opacity:1;stroke:#cccccc;stroke-width:2.11667;stroke-linecap:round;stroke-linejoin:round;stroke-dasharray:none"
           d="m 135.46666,249.88709 v 16.38711 a 36.870965,18.435482 0 0 0 36.87114,-18.43556 v -16.38712 a 36.870964,18.435482 0 0 1 -0.0543,0.99839 36.870964,18.435482 0 0 1 -0.16227,0.99477 36.870964,18.435482 0 0 1 -0.26923,0.98961 36.870964,18.435482 0 0 1 -0.3762,0.9803 36.870964,18.435482 0 0 1 -0.48215,0.96893 36.870964,18.435482 0 0 1 -0.58601,0.95446 36.870964,18.435482 0 0 1 -0.68884,0.93741 36.870964,18.435482 0 0 1 -0.7891,0.91726 36.870964,18.435482 0 0 1 -0.88729,0.89452 36.870964,18.435482 0 0 1 -0.98288,0.86868 36.870964,18.435482 0 0 1 -1.07539,0.84129 36.870964,18.435482 0 0 1 -1.16479,0.81132 36.870964,18.435482 0 0 1 -1.25108,0.77825 36.870964,18.435482 0 0 1 -1.33325,0.74311 36.870964,18.435482 0 0 1 -1.41232,0.7059 36.870964,18.435482 0 0 1 -1.48621,0.66662 36.870964,18.435482 0 0 1 -1.5565,0.62581 36.870964,18.435482 0 0 1 -1.62161,0.58239 36.870964,18.435482 0 0 1 -1.68258,0.53743 36.870964,18.435482 0 0 1 -1.73839,0.49145 36.870964,18.435482 0 0 1 -1.78904,0.4439 36.870964,18.435482 0 0 1 -1.83452,0.39429 36.870964,18.435482 0 0 1 -1.8743,0.34416 36.870964,18.435482 0 0 1 -1.90893,0.29353 36.870964,18.435482 0 0 1 -1.93786,0.24081 36.870964,18.435482 0 0 1 -1.96112,0.1881 36.870964,18.435482 0 0 1 -1.9787,0.13488 36.870964,18.435482 0 0 1 -1.99005,0.0811 36.870964,18.435482 0 0 1 -1.99627,0.0269 z" />
        <ellipse
           style="fill:none;fill-opacity:1;stroke:#cccccc;stroke-width:2.11667;stroke-linecap:round;stroke-linejoin:round;stroke-dasharray:none"
           id="ellipse3868"
           cx="135.46666"
           cy="231.45158"
           rx="36.870964"
           ry="18.435482" />
      </g>
    </g>
  </g>
</svg>
