<?xml version="1.0" encoding="UTF-8" standalone="no"?>
<!-- Created with Inkscape (http://www.inkscape.org/) -->

<svg
   width="1024"
   height="1024"
   viewBox="0 0 270.93332 270.93334"
   version="1.1"
   id="svg8"
   inkscape:version="1.1.2 (0a00cf5339, 2022-02-04)"
   sodipodi:docname="logo-color.svg"
   xmlns:inkscape="http://www.inkscape.org/namespaces/inkscape"
   xmlns:sodipodi="http://sodipodi.sourceforge.net/DTD/sodipodi-0.dtd"
   xmlns="http://www.w3.org/2000/svg"
   xmlns:svg="http://www.w3.org/2000/svg"
   xmlns:rdf="http://www.w3.org/1999/02/22-rdf-syntax-ns#"
   xmlns:cc="http://creativecommons.org/ns#"
   xmlns:dc="http://purl.org/dc/elements/1.1/">
  <defs
     id="defs2" />
  <sodipodi:namedview
     id="base"
     pagecolor="#ffffff"
     bordercolor="#666666"
     borderopacity="1.0"
     inkscape:pageopacity="0.0"
     inkscape:pageshadow="2"
     inkscape:zoom="1.2507206"
     inkscape:cx="448.54143"
     inkscape:cy="477.32483"
     inkscape:document-units="px"
     inkscape:current-layer="layer1"
     showgrid="true"
     units="px"
     borderlayer="true"
     inkscape:showpageshadow="false"
     inkscape:snap-bbox="true"
     inkscape:bbox-paths="true"
     inkscape:bbox-nodes="true"
     inkscape:snap-bbox-edge-midpoints="true"
     inkscape:snap-bbox-midpoints="true"
     inkscape:object-paths="true"
     inkscape:snap-intersection-paths="true"
     inkscape:snap-smooth-nodes="true"
     inkscape:snap-midpoints="true"
     inkscape:snap-object-midpoints="true"
     inkscape:snap-center="true"
     inkscape:snap-text-baseline="true"
     inkscape:snap-page="true"
     showguides="false"
     inkscape:guide-bbox="true"
     inkscape:snap-grids="false"
     inkscape:window-width="1920"
     inkscape:window-height="2131"
     inkscape:window-x="0"
     inkscape:window-y="0"
     inkscape:window-maximized="0"
     inkscape:pagecheckerboard="0">
    <inkscape:grid
       type="xygrid"
       id="grid3713"
       empspacing="32" />
  </sodipodi:namedview>
  <metadata
     id="metadata5">
    <rdf:RDF>
      <cc:Work
         rdf:about="">
        <dc:format>image/svg+xml</dc:format>
        <dc:type
           rdf:resource="http://purl.org/dc/dcmitype/StillImage" />
      </cc:Work>
    </rdf:RDF>
  </metadata>
  <g
     inkscape:label="Layer 1"
     inkscape:groupmode="layer"
     id="layer1"
     transform="translate(0,-161.53331)">
    <g
       id="g1256">
      <path
         sodipodi:type="star"
         style="fill:#000000;fill-opacity:1;stroke-width:0.264583"
         id="path3822"
         sodipodi:sides="6"
         sodipodi:cx="67.73333"
         sodipodi:cy="229.26665"
         sodipodi:r1="65.616669"
         sodipodi:r2="56.825703"
         sodipodi:arg1="-1.5707963"
         sodipodi:arg2="-1.0471975"
         inkscape:flatsided="true"
         inkscape:rounded="0"
         inkscape:randomized="0"
         d="m 67.733332,163.64998 56.825698,32.80833 0,65.61667 -56.825702,32.80834 -56.825701,-32.80834 2e-6,-65.61667 z"
         transform="matrix(1.9354838,0,0,1.9354838,4.3699025,-146.74191)" />
      <g
         id="g1113">
        <g
           id="g931"
           transform="translate(-54.343492,-128.0766)">
          <g
             id="g922"
             transform="matrix(0.5,0,0,0.5,73.61756,224.8286)">
            <path
               style="fill:#37abc8;fill-opacity:1;stroke-width:0.396462"
               d="m 232.38521,400.49592 -85.15009,49.16129 v 98.32257 l 85.15009,-49.16128 z"
               id="path3834-0" />
            <path
               style="fill:#87cdde;fill-opacity:1;stroke-width:0.396462"
               d="M 147.23512,449.65721 62.085032,400.49592 v 98.32258 l 85.150088,49.16128 z"
               id="path3837-9" />
            <path
               style="fill:#afdde9;fill-opacity:1;stroke-width:0.396462"
               d="m 147.23512,351.33463 -85.150088,49.16129 85.150088,49.16129 85.15009,-49.16129 z"
               id="path3824-3" />
            <path
               style="fill:#87cdde;fill-opacity:1;stroke-width:0.512097"
               d="m 147.23512,382.06044 a 36.870965,18.435482 0 0 0 -16.87419,2.04838 h -19.99678 v 16.3871 a 36.870965,18.435482 0 0 0 36.87097,18.43548 z"
               id="path3876-6" />
            <path
               style="fill:#37abc8;fill-opacity:1;stroke-width:0.512097"
               d="m 147.23512,382.06044 v 36.87096 a 36.870965,18.435482 0 0 0 36.87097,-18.43548 v -16.3871 H 164.0503 a 36.870965,18.435482 0 0 0 -16.81518,-2.04838 z"
               id="ellipse3866-0" />
            <ellipse
               style="fill:#d7eef4;fill-opacity:1;stroke-width:0.512096"
               id="ellipse3868-6"
               cx="147.23511"
               cy="384.10883"
               rx="36.870964"
               ry="18.435482" />
          </g>
        </g>
        <g
           id="g860"
           transform="matrix(0.5,0,0,0.5,89.141715,96.880633)">
          <path
             style="fill:#ff0000;fill-opacity:1;stroke-width:0.396462"
             d="M 262.95009,400.23867 177.8,449.39996 v 98.32257 l 85.15009,-49.16128 z"
             id="path3834-3" />
          <path
             style="fill:#ff5555;fill-opacity:1;stroke-width:0.396462"
             d="M 177.8,449.39996 92.649915,400.23867 v 98.32258 L 177.8,547.72253 Z"
             id="path3837-6" />
          <path
             style="fill:#ffaaaa;fill-opacity:1;stroke-width:0.396462"
             d="M 177.8,351.07738 92.649915,400.23867 177.8,449.39996 262.95009,400.23867 Z"
             id="path3824-7" />
          <path
             style="fill:#ff5555;fill-opacity:1;stroke-width:0.512097"
             d="m 177.8,381.80319 a 36.870965,18.435482 0 0 0 -16.87419,2.04838 h -19.99677 v 16.3871 A 36.870965,18.435482 0 0 0 177.8,418.67415 Z"
             id="path3876-5" />
          <path
             style="fill:#ff0000;fill-opacity:1;stroke-width:0.512097"
             d="m 177.8,381.80319 v 36.87096 a 36.870965,18.435482 0 0 0 36.87097,-18.43548 v -16.3871 H 194.61518 A 36.870965,18.435482 0 0 0 177.8,381.80319 Z"
             id="ellipse3866-3" />
          <ellipse
             style="fill:#ffd5d5;fill-opacity:1;stroke-width:0.512096"
             id="ellipse3868-5"
             cx="177.79999"
             cy="383.85159"
             rx="36.870964"
             ry="18.435482" />
        </g>
        <g
           id="g962"
           transform="matrix(0.5,0,0,0.5,32.65594,22.586982)">
          <path
             style="fill:#ffcc00;fill-opacity:1;stroke-width:0.396462"
             d="m 290.77155,401.3421 -85.15009,49.16129 v 98.32257 l 85.15009,-49.16128 z"
             id="path3834-2" />
          <path
             style="fill:#ffdd55;fill-opacity:1;stroke-width:0.396462"
             d="M 205.62146,450.50339 120.47137,401.3421 v 98.32258 l 85.15009,49.16128 z"
             id="path3837-61" />
          <path
             style="fill:#ffe680;fill-opacity:1;stroke-width:0.396462"
             d="m 205.62146,352.18081 -85.15009,49.16129 85.15009,49.16129 85.15009,-49.16129 z"
             id="path3824-8" />
          <path
             style="fill:#ffdd55;fill-opacity:1;stroke-width:0.512097"
             d="m 205.62146,382.90662 a 36.870965,18.435482 0 0 0 -16.87419,2.04838 h -19.99678 v 16.3871 a 36.870965,18.435482 0 0 0 36.87097,18.43548 z"
             id="path3876-7" />
          <path
             style="fill:#ffcc00;fill-opacity:1;stroke-width:0.512097"
             d="m 205.62146,382.90662 v 36.87096 A 36.870965,18.435482 0 0 0 242.49243,401.3421 V 384.955 h -20.05579 a 36.870965,18.435482 0 0 0 -16.81518,-2.04838 z"
             id="ellipse3866-9" />
          <ellipse
             style="fill:#fff6d5;fill-opacity:1;stroke-width:0.512096"
             id="ellipse3868-2"
             cx="205.62144"
             cy="384.95502"
             rx="36.870964"
             ry="18.435482" />
        </g>
        <g
           id="g993"
           transform="matrix(0.5,0,0,0.5,7.2160175,43.88868)">
          <path
             style="fill:#2ca02c;fill-opacity:1;stroke-width:0.396462"
             d="m 256.50131,407.89999 -85.15009,49.16129 v 98.32257 l 85.15009,-49.16128 z"
             id="path3834-02" />
          <path
             style="fill:#87de87;fill-opacity:1;stroke-width:0.396462"
             d="M 171.35122,457.06128 86.201129,407.89999 v 98.32258 l 85.150091,49.16128 z"
             id="path3837-3" />
          <path
             style="fill:#afe9af;fill-opacity:1;stroke-width:0.396462"
             d="m 171.35122,358.7387 -85.150091,49.16129 85.150091,49.16129 85.15009,-49.16129 z"
             id="path3824-75" />
          <path
             style="fill:#87de87;fill-opacity:1;stroke-width:0.512097"
             d="m 171.35122,389.46451 a 36.870965,18.435482 0 0 0 -16.87419,2.04838 h -19.99678 v 16.3871 a 36.870965,18.435482 0 0 0 36.87097,18.43548 z"
             id="path3876-9" />
          <path
             style="fill:#2ca02c;fill-opacity:1;stroke-width:0.512097"
             d="m 171.35122,389.46451 v 36.87096 a 36.870965,18.435482 0 0 0 36.87097,-18.43548 v -16.3871 H 188.1664 a 36.870965,18.435482 0 0 0 -16.81518,-2.04838 z"
             id="ellipse3866-22" />
          <ellipse
             style="fill:#d7f4d7;fill-opacity:1;stroke-width:0.512096"
             id="ellipse3868-8"
             cx="171.35121"
             cy="391.51291"
             rx="36.870964"
             ry="18.435482" />
        </g>
        <g
           id="g891"
           transform="matrix(0.5,0,0,0.5,83.375453,46.638761)">
          <path
             style="fill:#ff6600;fill-opacity:1;stroke-width:0.396462"
             d="m 274.48261,402.39983 -85.15009,49.16129 v 98.32257 l 85.15009,-49.16128 z"
             id="path3834-6" />
          <path
             style="fill:#ff9955;fill-opacity:1;stroke-width:0.396462"
             d="m 189.33252,451.56112 -85.15009,-49.16129 v 98.32258 l 85.15009,49.16128 z"
             id="path3837-2" />
          <path
             style="fill:#ffccaa;fill-opacity:1;stroke-width:0.396462"
             d="m 189.33252,353.23854 -85.15009,49.16129 85.15009,49.16129 85.15009,-49.16129 z"
             id="path3824-9" />
          <path
             style="fill:#ff9955;fill-opacity:1;stroke-width:0.512097"
             d="m 189.33252,383.96435 a 36.870965,18.435482 0 0 0 -16.87419,2.04838 h -19.99678 v 16.3871 a 36.870965,18.435482 0 0 0 36.87097,18.43548 z"
             id="path3876-1" />
          <path
             style="fill:#ff6600;fill-opacity:1;stroke-width:0.512097"
             d="m 189.33252,383.96435 v 36.87096 a 36.870965,18.435482 0 0 0 36.87097,-18.43548 v -16.3871 H 206.1477 a 36.870965,18.435482 0 0 0 -16.81518,-2.04838 z"
             id="ellipse3866-2" />
          <ellipse
             style="fill:#ffe6d5;fill-opacity:1;stroke-width:0.512096"
             id="ellipse3868-7"
             cx="189.3325"
             cy="386.01276"
             rx="36.870964"
             ry="18.435482" />
        </g>
        <g
           id="g1033"
           transform="matrix(0.5,0,0,0.5,34.55984,116.46712)">
          <g
             id="g1024">
            <path
               style="fill:#7137c8;fill-opacity:1;stroke-width:0.396462"
               d="m 286.96375,410.22698 -85.1501,49.16129 v 98.32257 l 85.1501,-49.16128 z"
               id="path3834-9" />
            <path
               style="fill:#aa87de;fill-opacity:1;stroke-width:0.396462"
               d="m 201.81365,459.38827 -85.15008,-49.16129 v 98.32258 l 85.15008,49.16128 z"
               id="path3837-7" />
            <path
               style="fill:#c6afe9;fill-opacity:1;stroke-width:0.396462"
               d="m 201.81365,361.06569 -85.15008,49.16129 85.15008,49.16129 85.1501,-49.16129 z"
               id="path3824-36" />
            <path
               style="fill:#aa87de;fill-opacity:1;stroke-width:0.512097"
               d="m 201.81365,391.7915 a 36.870965,18.435482 0 0 0 -16.87419,2.04838 h -19.99677 v 16.3871 a 36.870965,18.435482 0 0 0 36.87096,18.43548 z"
               id="path3876-12" />
            <path
               style="fill:#7137c8;fill-opacity:1;stroke-width:0.512097"
               d="m 201.81365,391.7915 v 36.87096 a 36.870965,18.435482 0 0 0 36.87097,-18.43548 v -16.3871 h -20.05579 a 36.870965,18.435482 0 0 0 -16.81518,-2.04838 z"
               id="ellipse3866-93" />
            <ellipse
               style="fill:#e3d7f4;fill-opacity:1;stroke-width:0.512096"
               id="ellipse3868-1"
               cx="201.81364"
               cy="393.8399"
               rx="36.870964"
               ry="18.435482" />
          </g>
        </g>
        <g
           id="g1059"
           transform="matrix(0.5,0,0,0.5,34.348293,80.844695)">
          <g
             id="g924"
             transform="translate(66.770074,135.31059)">
            <path
               style="fill:#f2f2f2;fill-opacity:1;stroke-width:0.396462"
               d="m 135.46667,198.67738 -85.150087,49.16129 85.150087,49.16129 85.15009,-49.16129 z"
               id="path3824-94" />
            <path
               style="fill:#cccccc;fill-opacity:1;stroke-width:0.512097"
               d="m 135.46667,229.40319 a 36.870965,18.435482 0 0 0 -16.87419,2.04838 H 98.595704 v 16.3871 a 36.870965,18.435482 0 0 0 36.870966,18.43548 z"
               id="path3876-78" />
            <path
               style="fill:#b3b3b3;fill-opacity:1;stroke-width:0.396462"
               d="m 220.61676,247.83867 -85.15009,49.16129 v 98.32257 l 85.15009,-49.16128 z"
               id="path3834-4" />
            <path
               style="fill:#cccccc;fill-opacity:1;stroke-width:0.396462"
               d="M 135.46667,296.99996 50.316583,247.83867 v 98.32258 l 85.150087,49.16128 z"
               id="path3837-5" />
            <path
               style="fill:#b3b3b3;fill-opacity:1;stroke-width:0.512097"
               d="m 135.46667,229.40319 v 36.87096 a 36.870965,18.435482 0 0 0 36.87097,-18.43548 v -16.3871 h -20.05579 a 36.870965,18.435482 0 0 0 -16.81518,-2.04838 z"
               id="ellipse3866-03" />
            <ellipse
               style="fill:#e6e6e6;fill-opacity:1;stroke-width:0.512096"
               id="ellipse3868-61"
               cx="135.46666"
               cy="231.45158"
               rx="36.870964"
               ry="18.435482" />
          </g>
        </g>
      </g>
    </g>
  </g>
</svg>
