<?xml version="1.0" encoding="UTF-8" standalone="no"?>
<!-- Created with Inkscape (http://www.inkscape.org/) -->

<svg
   xmlns:dc="http://purl.org/dc/elements/1.1/"
   xmlns:cc="http://creativecommons.org/ns#"
   xmlns:rdf="http://www.w3.org/1999/02/22-rdf-syntax-ns#"
   xmlns:svg="http://www.w3.org/2000/svg"
   xmlns="http://www.w3.org/2000/svg"
   xmlns:sodipodi="http://sodipodi.sourceforge.net/DTD/sodipodi-0.dtd"
   xmlns:inkscape="http://www.inkscape.org/namespaces/inkscape"
   width="512"
   height="512"
   viewBox="0 0 135.46666 135.46667"
   version="1.1"
   id="svg8"
   inkscape:version="0.92.4 (5da689c313, 2019-01-14)"
   sodipodi:docname="logo-grey.svg">
  <defs
     id="defs2" />
  <sodipodi:namedview
     id="base"
     pagecolor="#ffffff"
     bordercolor="#666666"
     borderopacity="1.0"
     inkscape:pageopacity="0.0"
     inkscape:pageshadow="2"
     inkscape:zoom="2.4082031"
     inkscape:cx="256"
     inkscape:cy="222.78021"
     inkscape:document-units="px"
     inkscape:current-layer="layer1"
     showgrid="false"
     units="px"
     borderlayer="true"
     inkscape:showpageshadow="false"
     inkscape:snap-bbox="true"
     inkscape:bbox-paths="true"
     inkscape:bbox-nodes="true"
     inkscape:snap-bbox-edge-midpoints="true"
     inkscape:snap-bbox-midpoints="true"
     inkscape:object-paths="true"
     inkscape:snap-intersection-paths="true"
     inkscape:snap-smooth-nodes="true"
     inkscape:snap-midpoints="true"
     inkscape:snap-object-midpoints="true"
     inkscape:snap-center="true"
     inkscape:snap-text-baseline="true"
     inkscape:snap-page="true"
     showguides="false"
     inkscape:guide-bbox="true"
     inkscape:snap-grids="true"
     inkscape:window-width="2160"
     inkscape:window-height="1375"
     inkscape:window-x="0"
     inkscape:window-y="36"
     inkscape:window-maximized="1">
    <inkscape:grid
       type="xygrid"
       id="grid3713"
       empspacing="8" />
  </sodipodi:namedview>
  <metadata
     id="metadata5">
    <rdf:RDF>
      <cc:Work
         rdf:about="">
        <dc:format>image/svg+xml</dc:format>
        <dc:type
           rdf:resource="http://purl.org/dc/dcmitype/StillImage" />
        <dc:title></dc:title>
      </cc:Work>
    </rdf:RDF>
  </metadata>
  <g
     inkscape:label="Layer 1"
     inkscape:groupmode="layer"
     id="layer1"
     transform="translate(0,-161.53331)">
    <path
       sodipodi:type="star"
       style="fill:#000000;fill-opacity:1;stroke-width:0.26458332"
       id="path3822"
       sodipodi:sides="6"
       sodipodi:cx="67.73333"
       sodipodi:cy="229.26665"
       sodipodi:r1="65.616669"
       sodipodi:r2="56.825703"
       sodipodi:arg1="-1.5707963"
       sodipodi:arg2="-1.0471975"
       inkscape:flatsided="true"
       inkscape:rounded="0"
       inkscape:randomized="0"
       d="m 67.733332,163.64998 56.825698,32.80833 0,65.61667 -56.825702,32.80834 -56.825701,-32.80834 2e-6,-65.61667 z" />
    <path
       style="fill:#f2f2f2;fill-opacity:1;stroke-width:0.77419353"
       d="M 256 64 L 89.722656 160 L 256 256 L 422.27734 160 L 256 64 z "
       id="path3824"
       transform="matrix(0.26458333,0,0,0.26458333,0,161.53331)" />
    <path
       style="fill:#cccccc;fill-opacity:1;stroke-width:0.99999994"
       d="M 256 124 A 71.999998 35.999999 0 0 0 223.04883 128 L 184 128 L 184 160 A 71.999998 35.999999 0 0 0 256 196 L 256 124 z "
       id="path3876"
       transform="matrix(0.26458333,0,0,0.26458333,0,161.53331)" />
    <path
       style="fill:#b3b3b3;fill-opacity:1;stroke-width:0.77419353"
       d="M 422.27734 160 L 256 256 L 256 448 L 422.27734 352 L 422.27734 160 z "
       id="path3834"
       transform="matrix(0.26458333,0,0,0.26458333,0,161.53331)" />
    <path
       style="fill:#cccccc;fill-opacity:1;stroke-width:0.77419353"
       d="M 256 256 L 89.722656 160 L 89.722656 352 L 256 448 L 256 256 z "
       id="path3837"
       transform="matrix(0.26458333,0,0,0.26458333,0,161.53331)" />
    <path
       style="fill:#b3b3b3;fill-opacity:1;stroke-width:0.99999994"
       d="M 256 124 L 256 196 A 71.999998 35.999999 0 0 0 328 160 L 328 128 L 288.83594 128 A 71.999998 35.999999 0 0 0 256 124 z "
       id="ellipse3866"
       transform="matrix(0.26458333,0,0,0.26458333,0,161.53331)" />
    <ellipse
       style="fill:#e6e6e6;fill-opacity:1;stroke-width:0.26458332"
       id="ellipse3868"
       cx="67.73333"
       cy="195.39998"
       rx="19.049999"
       ry="9.5249996" />
  </g>
</svg>
