<?xml version="1.0" encoding="UTF-8" standalone="no"?>
<!-- Created with Inkscape (http://www.inkscape.org/) -->

<svg
   width="1024"
   height="1024"
   viewBox="0 0 270.93332 270.93334"
   version="1.1"
   id="svg8"
   inkscape:version="1.4 (e7c3feb100, 2024-10-09)"
   sodipodi:docname="logo-wireframe.svg"
   xmlns:inkscape="http://www.inkscape.org/namespaces/inkscape"
   xmlns:sodipodi="http://sodipodi.sourceforge.net/DTD/sodipodi-0.dtd"
   xmlns="http://www.w3.org/2000/svg"
   xmlns:svg="http://www.w3.org/2000/svg"
   xmlns:rdf="http://www.w3.org/1999/02/22-rdf-syntax-ns#"
   xmlns:cc="http://creativecommons.org/ns#"
   xmlns:dc="http://purl.org/dc/elements/1.1/">
  <defs
     id="defs2" />
  <sodipodi:namedview
     id="base"
     pagecolor="#ffffff"
     bordercolor="#666666"
     borderopacity="1.0"
     inkscape:pageopacity="0.0"
     inkscape:pageshadow="2"
     inkscape:zoom="1.2507206"
     inkscape:cx="448.14166"
     inkscape:cy="477.32483"
     inkscape:document-units="px"
     inkscape:current-layer="layer1"
     showgrid="true"
     units="px"
     borderlayer="true"
     inkscape:showpageshadow="false"
     inkscape:snap-bbox="true"
     inkscape:bbox-paths="true"
     inkscape:bbox-nodes="true"
     inkscape:snap-bbox-edge-midpoints="true"
     inkscape:snap-bbox-midpoints="true"
     inkscape:object-paths="true"
     inkscape:snap-intersection-paths="true"
     inkscape:snap-smooth-nodes="true"
     inkscape:snap-midpoints="true"
     inkscape:snap-object-midpoints="true"
     inkscape:snap-center="true"
     inkscape:snap-text-baseline="true"
     inkscape:snap-page="true"
     showguides="false"
     inkscape:guide-bbox="true"
     inkscape:snap-grids="false"
     inkscape:window-width="3840"
     inkscape:window-height="2131"
     inkscape:window-x="0"
     inkscape:window-y="0"
     inkscape:window-maximized="1"
     inkscape:pagecheckerboard="0"
     inkscape:deskcolor="#d1d1d1">
    <inkscape:grid
       type="xygrid"
       id="grid3713"
       empspacing="32"
       originx="0"
       originy="0"
       spacingy="1"
       spacingx="1"
       units="px" />
  </sodipodi:namedview>
  <metadata
     id="metadata5">
    <rdf:RDF>
      <cc:Work
         rdf:about="">
        <dc:format>image/svg+xml</dc:format>
        <dc:type
           rdf:resource="http://purl.org/dc/dcmitype/StillImage" />
      </cc:Work>
    </rdf:RDF>
  </metadata>
  <g
     inkscape:label="Layer 1"
     inkscape:groupmode="layer"
     id="layer1"
     transform="translate(0,-161.53331)">
    <path
       sodipodi:type="star"
       style="fill:#000000;fill-opacity:1;stroke-width:0.264583"
       id="path3822"
       sodipodi:sides="6"
       sodipodi:cx="67.73333"
       sodipodi:cy="229.26665"
       sodipodi:r1="65.616669"
       sodipodi:r2="56.825703"
       sodipodi:arg1="-1.5707963"
       sodipodi:arg2="-1.0471975"
       inkscape:flatsided="true"
       inkscape:rounded="0"
       inkscape:randomized="0"
       d="m 67.733332,163.64998 56.825698,32.80833 0,65.61667 -56.825702,32.80834 -56.825701,-32.80834 2e-6,-65.61667 z"
       transform="matrix(1.9354838,0,0,1.9354838,4.3699025,-146.74191)" />
    <path
       style="fill:#1a1a1a;fill-opacity:1;stroke-width:2.6458333;stroke:#f2f2f2;stroke-linejoin:round;stroke-linecap:round;stroke-dasharray:none"
       d="M 135.46667,296.99996 92.891628,321.5806 v 49.16129 l 42.575042,-24.58064 z"
       id="path3834-0" />
    <path
       style="fill:#1a1a1a;fill-opacity:1;stroke-width:2.6458333;stroke:#f2f2f2;stroke-linejoin:round;stroke-linecap:round;stroke-dasharray:none"
       d="M 92.891628,321.5806 50.316584,296.99996 v 49.16129 l 42.575044,24.58064 z"
       id="path3837-9" />
    <path
       style="fill:#1a1a1a;fill-opacity:1;stroke-width:2.6458333;stroke:#f2f2f2;stroke-linejoin:round;stroke-linecap:round;stroke-dasharray:none"
       d="M 92.891628,272.41931 50.316584,296.99996 92.891628,321.5806 135.46667,296.99996 Z"
       id="path3824-3" />
    <path
       style="fill:#1a1a1a;fill-opacity:1;stroke-width:2.6458333;stroke:#f2f2f2;stroke-linejoin:round;stroke-linecap:round;stroke-dasharray:none"
       d="m 92.891628,287.78222 a 18.435482,9.217741 0 0 0 -8.437095,1.02419 h -9.99839 v 8.19355 a 18.435482,9.217741 0 0 0 18.435485,9.21774 z"
       id="path3876-6" />
    <path
       style="fill:#1a1a1a;fill-opacity:1;stroke-width:2.6458333;stroke:#f2f2f2;stroke-linejoin:round;stroke-linecap:round;stroke-dasharray:none"
       d="m 92.891628,287.78222 v 18.43548 a 18.435482,9.217741 0 0 0 18.435482,-9.21774 v -8.19355 h -10.02789 a 18.435482,9.217741 0 0 0 -8.407592,-1.02419 z"
       id="ellipse3866-0" />
    <ellipse
       style="fill:#1a1a1a;fill-opacity:1;stroke-width:2.6458333;stroke:#f2f2f2;stroke-linejoin:round;stroke-linecap:round;stroke-dasharray:none"
       id="ellipse3868-6"
       cx="92.891624"
       cy="288.80643"
       rx="18.435482"
       ry="9.217741" />
    <path
       style="fill:#1a1a1a;fill-opacity:1;stroke-width:2.6458333;stroke:#f2f2f2;stroke-linejoin:round;stroke-linecap:round;stroke-dasharray:none"
       d="m 220.61676,296.99997 -42.57505,24.58064 v 49.16129 l 42.57505,-24.58064 z"
       id="path3834-3" />
    <path
       style="fill:#1a1a1a;fill-opacity:1;stroke-width:2.6458333;stroke:#f2f2f2;stroke-linejoin:round;stroke-linecap:round;stroke-dasharray:none"
       d="m 178.04171,321.58061 -42.57504,-24.58064 v 49.16129 l 42.57504,24.58064 z"
       id="path3837-6" />
    <path
       style="fill:#1a1a1a;fill-opacity:1;stroke-width:2.6458333;stroke:#f2f2f2;stroke-linejoin:round;stroke-linecap:round;stroke-dasharray:none"
       d="m 178.04171,272.41932 -42.57504,24.58065 42.57504,24.58064 42.57505,-24.58064 z"
       id="path3824-7" />
    <path
       style="fill:#1a1a1a;fill-opacity:1;stroke-width:2.6458333;stroke:#f2f2f2;stroke-linejoin:round;stroke-linecap:round;stroke-dasharray:none"
       d="m 178.04171,287.78223 a 18.435482,9.217741 0 0 0 -8.43709,1.02419 h -9.99838 v 8.19355 a 18.435482,9.217741 0 0 0 18.43547,9.21774 z"
       id="path3876-5" />
    <path
       style="fill:#1a1a1a;fill-opacity:1;stroke-width:2.6458333;stroke:#f2f2f2;stroke-linejoin:round;stroke-linecap:round;stroke-dasharray:none"
       d="m 178.04171,287.78223 v 18.43548 a 18.435482,9.217741 0 0 0 18.43549,-9.21774 v -8.19355 h -10.0279 a 18.435482,9.217741 0 0 0 -8.40759,-1.02419 z"
       id="ellipse3866-3" />
    <ellipse
       style="fill:#1a1a1a;fill-opacity:1;stroke-width:2.6458333;stroke:#f2f2f2;stroke-linejoin:round;stroke-linecap:round;stroke-dasharray:none"
       id="ellipse3868-5"
       cx="178.0417"
       cy="288.80643"
       rx="18.435482"
       ry="9.217741" />
    <path
       style="fill:#1a1a1a;fill-opacity:1;stroke-width:2.6458333;stroke:#f2f2f2;stroke-linejoin:round;stroke-linecap:round;stroke-dasharray:none"
       d="m 178.04171,223.25803 -42.57504,24.58065 v 49.16128 l 42.57504,-24.58064 z"
       id="path3834-2" />
    <path
       style="fill:#1a1a1a;fill-opacity:1;stroke-width:2.6458333;stroke:#f2f2f2;stroke-linejoin:round;stroke-linecap:round;stroke-dasharray:none"
       d="M 135.46667,247.83868 92.891625,223.25803 v 49.16129 l 42.575045,24.58064 z"
       id="path3837-61" />
    <path
       style="fill:#1a1a1a;fill-opacity:1;stroke-width:2.6458333;stroke:#f2f2f2;stroke-linejoin:round;stroke-linecap:round;stroke-dasharray:none"
       d="m 135.46667,198.67739 -42.575045,24.58064 42.575045,24.58065 42.57504,-24.58065 z"
       id="path3824-8" />
    <path
       style="fill:#1a1a1a;fill-opacity:1;stroke-width:2.6458333;stroke:#f2f2f2;stroke-linejoin:round;stroke-linecap:round;stroke-dasharray:none"
       d="m 135.46667,214.04029 a 18.435482,9.217741 0 0 0 -8.43709,1.02419 h -9.99839 v 8.19355 a 18.435482,9.217741 0 0 0 18.43548,9.21774 z"
       id="path3876-7" />
    <path
       style="fill:#1a1a1a;fill-opacity:1;stroke-width:2.6458333;stroke:#f2f2f2;stroke-linejoin:round;stroke-linecap:round;stroke-dasharray:none"
       d="m 135.46667,214.04029 v 18.43548 a 18.435482,9.217741 0 0 0 18.43548,-9.21774 v -8.19355 h -10.02789 a 18.435482,9.217741 0 0 0 -8.40759,-1.02419 z"
       id="ellipse3866-9" />
    <ellipse
       style="fill:#1a1a1a;fill-opacity:1;stroke-width:2.6458333;stroke:#f2f2f2;stroke-linejoin:round;stroke-linecap:round;stroke-dasharray:none"
       id="ellipse3868-2"
       cx="135.46666"
       cy="215.06448"
       rx="18.435482"
       ry="9.217741" />
    <path
       style="fill:#1a1a1a;fill-opacity:1;stroke-width:2.6458333;stroke:#f2f2f2;stroke-linejoin:round;stroke-linecap:round;stroke-dasharray:none"
       d="m 135.46667,247.83867 -42.575043,24.58065 v 49.16129 l 42.575043,-24.58064 z"
       id="path3834-02" />
    <path
       style="fill:#1a1a1a;fill-opacity:1;stroke-width:2.6458333;stroke:#f2f2f2;stroke-linejoin:round;stroke-linecap:round;stroke-dasharray:none"
       d="M 92.891628,272.41932 50.316582,247.83867 v 49.1613 l 42.575046,24.58064 z"
       id="path3837-3" />
    <path
       style="fill:#1a1a1a;fill-opacity:1;stroke-width:2.6458333;stroke:#f2f2f2;stroke-linejoin:round;stroke-linecap:round;stroke-dasharray:none"
       d="m 92.891628,223.25803 -42.575046,24.58064 42.575046,24.58065 42.575042,-24.58065 z"
       id="path3824-75" />
    <path
       style="fill:#1a1a1a;fill-opacity:1;stroke-width:2.6458333;stroke:#f2f2f2;stroke-linejoin:round;stroke-linecap:round;stroke-dasharray:none"
       d="m 92.891628,238.62093 a 18.435482,9.217741 0 0 0 -8.437095,1.02419 h -9.99839 v 8.19355 a 18.435482,9.217741 0 0 0 18.435485,9.21775 z"
       id="path3876-9" />
    <path
       style="fill:#1a1a1a;fill-opacity:1;stroke-width:2.6458333;stroke:#f2f2f2;stroke-linejoin:round;stroke-linecap:round;stroke-dasharray:none"
       d="m 92.891628,238.62093 v 18.43549 a 18.435482,9.217741 0 0 0 18.435482,-9.21775 v -8.19355 h -10.02789 a 18.435482,9.217741 0 0 0 -8.407592,-1.02419 z"
       id="ellipse3866-22" />
    <ellipse
       style="fill:#1a1a1a;fill-opacity:1;stroke-width:2.6458333;stroke:#f2f2f2;stroke-linejoin:round;stroke-linecap:round;stroke-dasharray:none"
       id="ellipse3868-8"
       cx="92.891624"
       cy="239.64514"
       rx="18.435482"
       ry="9.217741" />
    <path
       style="fill:#1a1a1a;fill-opacity:1;stroke-width:2.6458333;stroke:#f2f2f2;stroke-linejoin:round;stroke-linecap:round;stroke-dasharray:none"
       d="m 220.61676,247.83868 -42.57505,24.58064 v 49.16129 l 42.57505,-24.58064 z"
       id="path3834-6" />
    <path
       style="fill:#1a1a1a;fill-opacity:1;stroke-width:2.6458333;stroke:#f2f2f2;stroke-linejoin:round;stroke-linecap:round;stroke-dasharray:none"
       d="m 178.04171,272.41932 -42.57504,-24.58064 v 49.16129 l 42.57504,24.58064 z"
       id="path3837-2" />
    <path
       style="fill:#1a1a1a;fill-opacity:1;stroke-width:2.6458333;stroke:#f2f2f2;stroke-linejoin:round;stroke-linecap:round;stroke-dasharray:none"
       d="m 178.04171,223.25803 -42.57504,24.58065 42.57504,24.58064 42.57505,-24.58064 z"
       id="path3824-9" />
    <path
       style="fill:#1a1a1a;fill-opacity:1;stroke-width:2.6458333;stroke:#f2f2f2;stroke-linejoin:round;stroke-linecap:round;stroke-dasharray:none"
       d="m 178.04171,238.62094 a 18.435482,9.217741 0 0 0 -8.43709,1.02419 h -9.99839 v 8.19355 a 18.435482,9.217741 0 0 0 18.43548,9.21774 z"
       id="path3876-1" />
    <path
       style="fill:#1a1a1a;fill-opacity:1;stroke-width:2.6458333;stroke:#f2f2f2;stroke-linejoin:round;stroke-linecap:round;stroke-dasharray:none"
       d="m 178.04171,238.62094 v 18.43548 a 18.435482,9.217741 0 0 0 18.43549,-9.21774 v -8.19355 h -10.0279 a 18.435482,9.217741 0 0 0 -8.40759,-1.02419 z"
       id="ellipse3866-2" />
    <ellipse
       style="fill:#1a1a1a;fill-opacity:1;stroke-width:2.6458333;stroke:#f2f2f2;stroke-linejoin:round;stroke-linecap:round;stroke-dasharray:none"
       id="ellipse3868-7"
       cx="178.0417"
       cy="239.64514"
       rx="18.435482"
       ry="9.217741" />
    <path
       style="fill:#1a1a1a;fill-opacity:1;stroke-width:2.6458333;stroke:#f2f2f2;stroke-linejoin:round;stroke-linecap:round;stroke-dasharray:none"
       d="m 178.04171,321.58061 -42.57505,24.58064 v 49.16129 l 42.57505,-24.58064 z"
       id="path3834-9" />
    <path
       style="fill:#1a1a1a;fill-opacity:1;stroke-width:2.6458333;stroke:#f2f2f2;stroke-linejoin:round;stroke-linecap:round;stroke-dasharray:none"
       d="M 135.46666,346.16125 92.891625,321.58061 v 49.16129 l 42.575035,24.58064 z"
       id="path3837-7" />
    <path
       style="fill:#1a1a1a;fill-opacity:1;stroke-width:2.6458333;stroke:#f2f2f2;stroke-linejoin:round;stroke-linecap:round;stroke-dasharray:none"
       d="m 135.46666,296.99996 -42.575035,24.58065 42.575035,24.58064 42.57505,-24.58064 z"
       id="path3824-36" />
    <path
       style="fill:#1a1a1a;fill-opacity:1;stroke-width:2.6458333;stroke:#f2f2f2;stroke-linejoin:round;stroke-linecap:round;stroke-dasharray:none"
       d="m 135.46666,312.36287 a 18.435482,9.217741 0 0 0 -8.43709,1.02419 h -9.99839 v 8.19355 a 18.435482,9.217741 0 0 0 18.43548,9.21774 z"
       id="path3876-12" />
    <path
       style="fill:#1a1a1a;fill-opacity:1;stroke-width:2.6458333;stroke:#f2f2f2;stroke-linejoin:round;stroke-linecap:round;stroke-dasharray:none"
       d="m 135.46666,312.36287 v 18.43548 a 18.435482,9.217741 0 0 0 18.43549,-9.21774 v -8.19355 h -10.0279 a 18.435482,9.217741 0 0 0 -8.40759,-1.02419 z"
       id="ellipse3866-93" />
    <ellipse
       style="fill:#1a1a1a;fill-opacity:1;stroke-width:2.6458333;stroke:#f2f2f2;stroke-linejoin:round;stroke-linecap:round;stroke-dasharray:none"
       id="ellipse3868-1"
       cx="135.46666"
       cy="313.38708"
       rx="18.435482"
       ry="9.217741" />
    <path
       style="fill:#1a1a1a;fill-opacity:1;stroke-width:2.6458333;stroke:#f2f2f2;stroke-linejoin:round;stroke-linecap:round;stroke-dasharray:none"
       d="m 135.46666,247.83868 -42.575039,24.58065 42.575039,24.58064 42.57505,-24.58065 z"
       id="path3824-94" />
    <path
       style="fill:#1a1a1a;fill-opacity:1;stroke-width:2.6458333;stroke:#f2f2f2;stroke-linejoin:round;stroke-linecap:round;stroke-dasharray:none"
       d="m 135.46666,263.20159 a 18.435482,9.217741 0 0 0 -8.43709,1.02418 h -9.99839 v 8.19356 a 18.435482,9.217741 0 0 0 18.43548,9.21773 z"
       id="path3876-78" />
    <path
       style="fill:#1a1a1a;fill-opacity:1;stroke-width:2.6458333;stroke:#f2f2f2;stroke-linejoin:round;stroke-linecap:round;stroke-dasharray:none"
       d="m 178.04171,272.41933 -42.57505,24.58064 v 49.16128 l 42.57505,-24.58064 z"
       id="path3834-4" />
    <path
       style="fill:#1a1a1a;fill-opacity:1;stroke-width:2.6458333;stroke:#f2f2f2;stroke-linejoin:round;stroke-linecap:round;stroke-dasharray:none"
       d="M 135.46666,296.99997 92.891621,272.41933 v 49.16128 l 42.575039,24.58064 z"
       id="path3837-5" />
    <path
       style="fill:#1a1a1a;fill-opacity:1;stroke-width:2.6458333;stroke:#f2f2f2;stroke-linejoin:round;stroke-linecap:round;stroke-dasharray:none"
       d="m 135.46666,263.20159 v 18.43547 a 18.435482,9.217741 0 0 0 18.43549,-9.21774 v -8.19355 h -10.0279 a 18.435482,9.217741 0 0 0 -8.40759,-1.02418 z"
       id="ellipse3866-03" />
    <ellipse
       style="fill:#1a1a1a;fill-opacity:1;stroke-width:2.6458333;stroke:#f2f2f2;stroke-linejoin:round;stroke-linecap:round;stroke-dasharray:none"
       id="ellipse3868-61"
       cx="135.46666"
       cy="264.22577"
       rx="18.435482"
       ry="9.217741" />
  </g>
</svg>
